# xmcd
#
# Track frame offsets: 
#        150
#        25751
#        38181
#        65689
#        93880
#        142553
#        169779
#        172681
#        183755
#        209089
#        221961
#        230837
#
# Disc length: 3285 seconds
#
# Revision: 3
# Processed by: cddbd v1.5.2PL0 Copyright (c) Steve Scherf et al.
# Submitted via: ExactAudioCopy v0.99pb5
#
DISCID=a20cd30c
DTITLE=The Who - Live At The Isle Of Wight Festival 1970 [CD1]
DYEAR=2010
DGENRE=Classic Rock
TTITLE0=Heaven And Hell
TTITLE1=I Can't Explain
TTITLE2=Young Man Blues
TTITLE3=I Don't Even Know Myself
TTITLE4=Water
TTITLE5=Overture
TTITLE6=It's A Boy
TTITLE7=1921
TTITLE8=Amazing Journey
TTITLE9=Sparks
TTITLE10=Eyesight To The Blind
TTITLE11=Christmas
EXTD=
EXTT0=
EXTT1=
EXTT2=
EXTT3=
EXTT4=
EXTT5=
EXTT6=
EXTT7=
EXTT8=
EXTT9=
EXTT10=
EXTT11=
PLAYORDER=
